<svg xmlns="http://www.w3.org/2000/svg" xmlns:xlink="http://www.w3.org/1999/xlink" viewBox="0 0 61.88 61.88"><defs><style>.cls-1{fill:url(#linear-gradient);}.cls-2{fill:url(#linear-gradient-2);}.cls-3{fill:url(#linear-gradient-3);}.cls-4{fill:url(#linear-gradient-4);}</style><linearGradient id="linear-gradient" x1="63.12" y1="-1.23" x2="-2.74" y2="64.62" gradientUnits="userSpaceOnUse"><stop offset="0" stop-color="#3ab7ff"/><stop offset="1" stop-color="#3a6bff"/></linearGradient><linearGradient id="linear-gradient-2" x1="44.72" y1="16.35" x2="18.19" y2="42.88" xlink:href="#linear-gradient"/><linearGradient id="linear-gradient-3" x1="27.11" y1="34.06" x2="22.42" y2="38.76" xlink:href="#linear-gradient"/><linearGradient id="linear-gradient-4" x1="40.47" y1="34.06" x2="35.78" y2="38.76" xlink:href="#linear-gradient"/></defs><title>Asset 5</title><g id="Layer_2" data-name="Layer 2"><g id="OBJECTS"><path class="cls-1" d="M42.93,61.88H19A19,19,0,0,1,0,42.93V19A19,19,0,0,1,19,0h24a19,19,0,0,1,19,19v24A19,19,0,0,1,42.93,61.88ZM19,2.3A16.67,16.67,0,0,0,2.3,19v24A16.67,16.67,0,0,0,19,59.59h24A16.67,16.67,0,0,0,59.59,42.93V19A16.67,16.67,0,0,0,42.93,2.3Z"/><path class="cls-2" d="M46,24.87a10.46,10.46,0,0,0,.56-3.38,9.51,9.51,0,0,0-1.06-4.39,9.44,9.44,0,0,0-3.95.79,21.66,21.66,0,0,0-3.9,2.43,25.65,25.65,0,0,0-5.85-.64,28.66,28.66,0,0,0-6.45.7,23,23,0,0,0-3.95-2.48,9.32,9.32,0,0,0-4-.8,9.39,9.39,0,0,0-1.06,4.39,10.66,10.66,0,0,0,.56,3.42,11.55,11.55,0,0,0-2.84,8,14.49,14.49,0,0,0,1.3,6.66,8.54,8.54,0,0,0,1.79,2.31,9.38,9.38,0,0,0,2.53,1.63,22.82,22.82,0,0,0,2.86,1,18.9,18.9,0,0,0,3.18.61c1.17.12,2.19.21,3.08.25s1.88.06,3,.06c1.28,0,2.44,0,3.49-.09a33,33,0,0,0,3.58-.44,19.14,19.14,0,0,0,3.55-1,11.39,11.39,0,0,0,2.94-1.73,8.16,8.16,0,0,0,2.2-2.67,14.73,14.73,0,0,0,1.28-6.66A11.65,11.65,0,0,0,46,24.87ZM43.47,39.5a5.83,5.83,0,0,1-1.69,2.07,8.16,8.16,0,0,1-2.55,1.2,15.64,15.64,0,0,1-2.92.6c-.93.09-2,.14-3.11.14H29.69c-1.14,0-2.18,0-3.11-.14a15.64,15.64,0,0,1-2.92-.6,8.16,8.16,0,0,1-2.55-1.2,5.83,5.83,0,0,1-1.69-2.07,6.7,6.7,0,0,1-.67-3.09,6.09,6.09,0,0,1,1.44-4.1,4.85,4.85,0,0,1,3.91-1.69c.59,0,1.95.14,4.07.42a22,22,0,0,0,3.28.22A21.94,21.94,0,0,0,34.72,31c2.15-.28,3.5-.42,4.07-.42a4.85,4.85,0,0,1,3.91,1.69,6.09,6.09,0,0,1,1.44,4.1A6.7,6.7,0,0,1,43.47,39.5Z"/><path class="cls-3" d="M26.28,33.23a2,2,0,0,0-1.52-.68,2,2,0,0,0-1.51.68,4.13,4.13,0,0,0-.9,1.53,5.37,5.37,0,0,0,0,3.3,4.13,4.13,0,0,0,.9,1.53,2,2,0,0,0,1.51.68,2,2,0,0,0,1.52-.68,4.13,4.13,0,0,0,.9-1.53,5.37,5.37,0,0,0,0-3.3A4.13,4.13,0,0,0,26.28,33.23Z"/><path class="cls-4" d="M39.64,33.23a2,2,0,0,0-1.51-.68,2,2,0,0,0-1.52.68,4,4,0,0,0-.89,1.53,5.18,5.18,0,0,0,0,3.3,4,4,0,0,0,.89,1.53,2,2,0,0,0,1.52.68,2,2,0,0,0,1.51-.68,4.13,4.13,0,0,0,.9-1.53,5.37,5.37,0,0,0,0-3.3A4.13,4.13,0,0,0,39.64,33.23Z"/></g></g></svg>