<svg xmlns="http://www.w3.org/2000/svg" xmlns:xlink="http://www.w3.org/1999/xlink" viewBox="0 0 61.88 61.89"><defs><style>.cls-1{fill:url(#linear-gradient);}.cls-2{fill:url(#linear-gradient-2);}.cls-3{fill:url(#linear-gradient-3);}.cls-4{fill:url(#linear-gradient-4);}</style><linearGradient id="linear-gradient" x1="70.44" y1="-6.8" x2="-3.75" y2="64.09" gradientUnits="userSpaceOnUse"><stop offset="0" stop-color="#4eeeff"/><stop offset="1" stop-color="#4e66ff"/></linearGradient><linearGradient id="linear-gradient-2" x1="67.93" y1="-9.42" x2="-6.26" y2="61.47" xlink:href="#linear-gradient"/><linearGradient id="linear-gradient-3" x1="61.92" y1="-15.72" x2="-12.27" y2="55.18" xlink:href="#linear-gradient"/><linearGradient id="linear-gradient-4" x1="73.85" y1="-3.23" x2="-0.34" y2="67.67" xlink:href="#linear-gradient"/></defs><title>Asset 4</title><g id="Layer_2" data-name="Layer 2"><g id="OBJECTS"><path class="cls-1" d="M42.93,61.89H19A19,19,0,0,1,0,42.93V19A19,19,0,0,1,19,0h24a19,19,0,0,1,19,19v24A19,19,0,0,1,42.93,61.89ZM19,2.3A16.67,16.67,0,0,0,2.3,19v24A16.67,16.67,0,0,0,19,59.59h24A16.67,16.67,0,0,0,59.59,42.93V19A16.67,16.67,0,0,0,42.93,2.3Z"/><rect class="cls-2" x="19.89" y="26.58" width="4.52" height="15.5"/><path class="cls-3" d="M22.15,19.81a2.48,2.48,0,1,0,2.48,2.47A2.48,2.48,0,0,0,22.15,19.81Z"/><path class="cls-4" d="M38.51,26.52a6.06,6.06,0,0,0-6.43,1.66h0l-.56-2.05H27.38v16h4.85V32.62a2.55,2.55,0,0,1,2.55-2.56h0a2.55,2.55,0,0,1,2.56,2.56v9.46h4.85v-8S42.73,27.71,38.51,26.52Z"/><path class="cls-1" d="M42.93,61.89H19A19,19,0,0,1,0,42.93V19A19,19,0,0,1,19,0h24a19,19,0,0,1,19,19v24A19,19,0,0,1,42.93,61.89ZM19,2.3A16.67,16.67,0,0,0,2.3,19v24A16.67,16.67,0,0,0,19,59.59h24A16.67,16.67,0,0,0,59.59,42.93V19A16.67,16.67,0,0,0,42.93,2.3Z"/><rect class="cls-2" x="19.89" y="26.58" width="4.52" height="15.5"/><path class="cls-3" d="M22.15,19.81a2.48,2.48,0,1,0,2.48,2.47A2.48,2.48,0,0,0,22.15,19.81Z"/><path class="cls-4" d="M38.51,26.52a6.06,6.06,0,0,0-6.43,1.66h0l-.56-2.05H27.38v16h4.85V32.62a2.55,2.55,0,0,1,2.55-2.56h0a2.55,2.55,0,0,1,2.56,2.56v9.46h4.85v-8S42.73,27.71,38.51,26.52Z"/></g></g></svg>