<svg xmlns="http://www.w3.org/2000/svg" xmlns:xlink="http://www.w3.org/1999/xlink" viewBox="0 0 61.88 61.88"><defs><style>.cls-1{fill:url(#linear-gradient);}.cls-2{fill:url(#linear-gradient-2);}</style><linearGradient id="linear-gradient" x1="58.61" y1="3.28" x2="2.8" y2="59.09" gradientUnits="userSpaceOnUse"><stop offset="0" stop-color="#66e8ff"/><stop offset="1" stop-color="#66adff"/></linearGradient><linearGradient id="linear-gradient-2" x1="55.62" y1="0.29" x2="-0.19" y2="56.1" xlink:href="#linear-gradient"/></defs><title>3Asset 1</title><g id="Layer_2" data-name="Layer 2"><g id="OBJECTS"><path class="cls-1" d="M42.93,61.88H19A19,19,0,0,1,0,42.93V19A19,19,0,0,1,19,0h24a19,19,0,0,1,19,19v24A19,19,0,0,1,42.93,61.88ZM19,2.3A16.67,16.67,0,0,0,2.3,19v24A16.67,16.67,0,0,0,19,59.59h24A16.67,16.67,0,0,0,59.59,42.93V19A16.67,16.67,0,0,0,42.93,2.3Z"/><path class="cls-2" d="M44.52,21.3a8.51,8.51,0,0,0,2.7-3.67,14.51,14.51,0,0,1-4.36,1.3A7.2,7.2,0,0,0,30,23.41a7.33,7.33,0,0,0,.36,2.26h-.05c-10.67-.73-15-7.57-15-7.57S12.7,23.51,17,27.77a4.25,4.25,0,0,1-2.44-.62s-.89,4.62,4.93,7.11a7.85,7.85,0,0,1-2.54.28,7.76,7.76,0,0,0,6.58,4.92s-2.17,2.76-9.77,3.29a20.5,20.5,0,0,0,24.79-2.89s5.34-4.51,6-13.59l3.64-5.81Z"/><path class="cls-1" d="M42.93,61.88H19A19,19,0,0,1,0,42.93V19A19,19,0,0,1,19,0h24a19,19,0,0,1,19,19v24A19,19,0,0,1,42.93,61.88ZM19,2.3A16.67,16.67,0,0,0,2.3,19v24A16.67,16.67,0,0,0,19,59.59h24A16.67,16.67,0,0,0,59.59,42.93V19A16.67,16.67,0,0,0,42.93,2.3Z"/><path class="cls-2" d="M44.52,21.3a8.51,8.51,0,0,0,2.7-3.67,14.51,14.51,0,0,1-4.36,1.3A7.2,7.2,0,0,0,30,23.41a7.33,7.33,0,0,0,.36,2.26h-.05c-10.67-.73-15-7.57-15-7.57S12.7,23.51,17,27.77a4.25,4.25,0,0,1-2.44-.62s-.89,4.62,4.93,7.11a7.85,7.85,0,0,1-2.54.28,7.76,7.76,0,0,0,6.58,4.92s-2.17,2.76-9.77,3.29a20.5,20.5,0,0,0,24.79-2.89s5.34-4.51,6-13.59l3.64-5.81Z"/></g></g></svg>