<svg xmlns="http://www.w3.org/2000/svg" viewBox="0 0 109.16 106.1"><defs><style>.cls-1{fill:#555253;opacity:0.3;}.cls-2{fill:#343233;}</style></defs><title>-2Asset 4</title><g id="Layer_2" data-name="Layer 2"><g id="Layer_1-2" data-name="Layer 1"><path class="cls-1" d="M57.84,5.71a51.36,51.36,0,0,0-16.2,100.08c2.56.49,3.53-1.12,3.53-2.4V94.73c-14.28,3-17.33-6.9-17.33-6.9-2.4-5.94-5.77-7.54-5.77-7.54-4.64-3.21.33-3.05.33-3.05,5.13.32,7.85,5.29,7.85,5.29,4.65,7.86,12,5.62,14.92,4.33A11.09,11.09,0,0,1,48.37,80C37,78.68,25,74.2,25,54.63a19.63,19.63,0,0,1,5.29-13.79,19.26,19.26,0,0,1,.48-13.64s4.33-1.45,14.12,5.29a50.06,50.06,0,0,1,12.83-1.76,48.75,48.75,0,0,1,12.83,1.76c9.79-6.57,14.11-5.29,14.11-5.29a19.28,19.28,0,0,1,.49,13.64A19.35,19.35,0,0,1,90.4,54.62C90.4,74.35,78.37,78.68,67,80c1.76,1.6,3.53,4.65,3.53,9.46v14.12c0,1.44,1,3,3.53,2.4A52,52,0,0,0,109.16,57,51.26,51.26,0,0,0,57.84,5.71Z"/><path class="cls-2" d="M51.32,0a51.36,51.36,0,0,0-16.2,100.08c2.57.49,3.53-1.12,3.53-2.4V89c-14.27,3-17.32-6.9-17.32-6.9-2.41-5.94-5.77-7.54-5.77-7.54-4.65-3.21.32-3,.32-3,5.13.32,7.85,5.29,7.85,5.29,4.66,7.86,12,5.62,14.92,4.33.49-3.36,1.76-5.61,3.21-6.89C30.47,73,18.45,68.49,18.45,48.92a19.69,19.69,0,0,1,5.28-13.79,19.28,19.28,0,0,1,.49-13.64s4.32-1.44,14.11,5.29A50.12,50.12,0,0,1,51.16,25,48.69,48.69,0,0,1,64,26.78c9.79-6.57,14.12-5.29,14.12-5.29a19.2,19.2,0,0,1,.48,13.64,19.36,19.36,0,0,1,5.3,13.78c0,19.73-12,24.07-23.42,25.35,1.76,1.6,3.52,4.65,3.52,9.46V97.84c0,1.44,1,3,3.53,2.4a52,52,0,0,0,35.13-48.92A51.27,51.27,0,0,0,51.32,0Z"/></g></g></svg>