<svg xmlns="http://www.w3.org/2000/svg" viewBox="0 0 89.29 85.09"><defs><style>.cls-1{opacity:0.3;}.cls-2{fill:#555253;}.cls-3{fill:#343233;}</style></defs><title>-2Asset 5</title><g id="Layer_2" data-name="Layer 2"><g id="Layer_1-2" data-name="Layer 1"><g class="cls-1"><rect class="cls-2" x="10.25" y="31.61" width="19.14" height="53.48"/><path class="cls-2" d="M39.26,31.61H54V39s2.27-7.5,15.92-7.5c11.28,0,19.34,4.39,19.34,16.45v37.1H73.52s.08-31.2.17-32.16-.87-8.83-8.91-8.83S54.2,49.87,54.2,54.24V85.09H39.26Z"/><circle class="cls-2" cx="19.82" cy="14.69" r="9.57" transform="translate(-4.59 18.32) rotate(-45)"/></g><rect class="cls-3" y="26.48" width="19.14" height="53.48"/><path class="cls-3" d="M29,26.48H43.78v7.43s2.27-7.49,15.93-7.49C71,26.42,79,30.81,79,42.87V80H63.27s.08-31.19.17-32.15S62.57,39,54.53,39,44,44.75,44,49.12V80H29Z"/><circle class="cls-3" cx="9.57" cy="9.57" r="9.57" transform="translate(-3.96 9.57) rotate(-45)"/></g></g></svg>