<svg xmlns="http://www.w3.org/2000/svg" viewBox="0 0 123.59 96"><defs><style>.cls-1{fill:#555253;opacity:0.3;}.cls-2{fill:#343233;}</style></defs><title>-2Asset 3</title><g id="Layer_2" data-name="Layer 2"><g id="Layer_1-2" data-name="Layer 1"><path class="cls-1" d="M104.94,12A21.44,21.44,0,0,0,88.53,5.14c-12.36.4-23.84,8-22.51,27.35,0,0-18.62,5.67-47.6-21.88,0,0-9.32,15.19,7.16,29.51,0,0-4.63,1.29-10.81-2.16,0,0-3.31,12.84,17.9,22.56,0,0-7.16,2-10.4,0,0,0,1.89,13.64,20.94,16.89,0,0-9.79,9.72-33,9.45,0,0,48.18,24.66,81.58-7C115.68,57.21,112.37,27,112.37,27a21.28,21.28,0,0,0,11.22-9.79s-8,2.5-12.57,2.09c0,0,8.78-5.48,9.46-12C120.48,7.36,113,12.7,104.94,12Z"/><path class="cls-2" d="M94.69,6.9A21.48,21.48,0,0,0,78.28,0C65.92.42,54.44,8,55.77,27.37c0,0-18.62,5.67-47.6-21.89,0,0-9.32,15.2,7.16,29.52,0,0-4.62,1.28-10.8-2.16,0,0-3.31,12.83,17.89,22.56,0,0-7.16,2-10.4,0C12,55.4,13.91,69,33,72.28c0,0-9.79,9.73-33,9.46,0,0,48.18,24.65,81.58-7,23.85-22.62,20.54-52.81,20.54-52.81a21.33,21.33,0,0,0,11.22-9.8s-8,2.5-12.57,2.1c0,0,8.78-5.48,9.46-12C110.23,2.24,102.73,7.58,94.69,6.9Z"/></g></g></svg>