<svg xmlns="http://www.w3.org/2000/svg" xmlns:xlink="http://www.w3.org/1999/xlink" viewBox="0 0 987.99 125.45"><defs><style>.cls-1{fill:url(#linear-gradient);}.cls-2{fill:#fff;}</style><linearGradient id="linear-gradient" x1="-4.38" y1="-1116.52" x2="-4.38" y2="-1011.83" gradientTransform="translate(-698.24 806.73) rotate(45)" gradientUnits="userSpaceOnUse"><stop offset="0" stop-color="#172b4d"/><stop offset="1" stop-color="#fff"/></linearGradient></defs><title>-2Asset 10</title><g id="Layer_2" data-name="Layer 2"><g id="Calque_1" data-name="Calque 1"><path class="cls-1" d="M3.62,77.65,0,74,74,0l3.62,3.62a34.83,34.83,0,0,1,0,49.27L52.89,77.65A34.83,34.83,0,0,1,3.62,77.65Z"/><path class="cls-2" d="M148.06,74l-3.62,3.62a34.83,34.83,0,0,1-49.27,0L70.41,52.89a34.83,34.83,0,0,1,0-49.27L74,0Z"/><circle class="cls-2" cx="74.15" cy="102.65" r="22.8"/><ellipse class="cls-2" cx="631.18" cy="84" rx="16.43" ry="16.19"/><path class="cls-2" d="M231.19,19.84h21.63l34.46,81.53h-24l-5.9-14.45H226.11l-5.79,14.45H196.73Zm19.67,49.61-9-23-9.13,23Z"/><path class="cls-2" d="M295.15,20.42h23.71l19.31,31.34,19.32-31.34h23.7v81H358.87V54.88l-20.7,31.69h-.46L317.12,55.12v46.25h-22Z"/><path class="cls-2" d="M396,20.42h22.55v81H396Z"/><path class="cls-2" d="M433.35,20.42h20.94l33.3,42.79V20.42H509.8v81H490.14L455.56,57v44.4H433.35Z"/><path class="cls-2" d="M524.14,20.42h65.11V39.5H546.34V51.76H585.2V69.45H546.34V82.29h43.48v19.08H524.14Z"/><path class="cls-2" d="M701.75,18h21.63l34.46,81.53H733.79l-5.9-14.45H696.67l-5.79,14.45H667.29ZM721.41,67.6l-9-23-9.13,23Z"/><path class="cls-2" d="M763.17,83.22l40.59-45.68H764.55v-19h70.2V34.88L794.16,80.56h40.59v19H763.17Z"/><path class="cls-2" d="M846.9,18.57h22.55V99.52H846.9Z"/><path class="cls-2" d="M881.71,83.22,922.3,37.54H883.1v-19h70.19V34.88L912.7,80.56h40.59v19H881.71Z"/><path class="cls-2" d="M965.44,18.57H988V99.52H965.44Z"/></g></g></svg>