<svg xmlns="http://www.w3.org/2000/svg" xmlns:xlink="http://www.w3.org/1999/xlink" viewBox="0 0 887.63 254.02"><defs><style>.cls-1{fill:url(#Dégradé_sans_nom_67);}.cls-2{fill:url(#Dégradé_sans_nom_58);}.cls-3{fill:url(#Dégradé_sans_nom_38);}.cls-4{fill:url(#Dégradé_sans_nom_38-2);}.cls-5{fill:#172b4d;}</style><linearGradient id="Dégradé_sans_nom_67" x1="328.17" y1="-392.62" x2="328.17" y2="-182.08" gradientTransform="translate(-332.39 75.2) rotate(45)" gradientUnits="userSpaceOnUse"><stop offset="0" stop-color="#172b4d"/><stop offset="1" stop-color="#0072cc"/></linearGradient><linearGradient id="Dégradé_sans_nom_58" x1="288" y1="-352.44" x2="498.53" y2="-352.44" gradientTransform="translate(-332.39 75.2) rotate(45)" gradientUnits="userSpaceOnUse"><stop offset="0" stop-color="#0052cc"/><stop offset="1" stop-color="#0082cc"/></linearGradient><linearGradient id="Dégradé_sans_nom_38" x1="388.28" y1="-246.83" x2="479.97" y2="-246.83" gradientTransform="translate(-332.39 75.2) rotate(45)" gradientUnits="userSpaceOnUse"><stop offset="0" stop-color="#0080cc"/><stop offset="1" stop-color="#0052cc"/></linearGradient><linearGradient id="Dégradé_sans_nom_38-2" x1="926.81" y1="-734.3" x2="976.38" y2="-734.3" xlink:href="#Dégradé_sans_nom_38"/></defs><title>-2Asset 9</title><g id="Layer_2" data-name="Layer 2"><g id="Calque_1" data-name="Calque 1"><path class="cls-1" d="M3.81,153.89,0,150.09,148.87,1.22,152.68,5a75,75,0,0,1,0,106l-42.85,42.84A75,75,0,0,1,3.81,153.89Z"/><path class="cls-2" d="M297.74,150.09l-3.8,3.8a75,75,0,0,1-106,0l-42.84-42.84a75,75,0,0,1,0-106l3.8-3.8Z"/><circle class="cls-3" cx="149.11" cy="207.64" r="45.85"/><ellipse class="cls-4" cx="859.72" cy="228.84" rx="24.97" ry="24.6"/><path class="cls-5" d="M409.2,0h28.85l46,108.77H451.94l-7.87-19.29H402.41l-7.71,19.29H363.23Zm26.23,66.19-12-30.71L411.21,66.19Z"/><path class="cls-5" d="M494.52.77h31.63l25.76,41.81L577.68.77h31.63v108H579.53v-62L551.91,89h-.61l-27.47-42v61.71H494.52Z"/><path class="cls-5" d="M629.06.77h30.08v108H629.06Z"/><path class="cls-5" d="M678.89.77h27.92l44.44,57.09V.77h29.62v108H754.64L708.51,49.52v59.25H678.89Z"/><path class="cls-5" d="M800,.77h86.86V26.23H829.62V42.58h51.84V66.19H829.62V83.31h58v25.46H800Z"/><path class="cls-5" d="M409.16,145.25H438L484,254H451.9L444,234.74H402.37L394.66,254H363.19Zm26.23,66.19-12-30.7-12.19,30.7Z"/><path class="cls-5" d="M491.09,232.27l54.15-60.94h-52.3V146h93.65v21.75l-54.16,60.94h54.16V254h-95.5Z"/><path class="cls-5" d="M602.79,146h30.08V254H602.79Z"/><path class="cls-5" d="M649.23,232.27l54.15-60.94h-52.3V146h93.65v21.75l-54.16,60.94h54.16V254h-95.5Z"/><path class="cls-5" d="M760.93,146H791V254H760.93Z"/></g></g></svg>