<svg xmlns="http://www.w3.org/2000/svg" xmlns:xlink="http://www.w3.org/1999/xlink" viewBox="0 0 887.42 252.81"><defs><style>.cls-1{fill:url(#linear-gradient);}.cls-2{fill:#fff;}</style><linearGradient id="linear-gradient" x1="1110.89" y1="-722.19" x2="1110.89" y2="-511.65" gradientTransform="translate(-1118.9 -246.44) rotate(45)" gradientUnits="userSpaceOnUse"><stop offset="0" stop-color="#172b4d"/><stop offset="1" stop-color="#fff"/></linearGradient></defs><title>-2Asset 11</title><g id="Layer_2" data-name="Layer 2"><g id="Calque_1" data-name="Calque 1"><path class="cls-1" d="M3.81,152.68,0,148.87,148.87,0l3.81,3.81a75,75,0,0,1,0,106l-42.85,42.85A75,75,0,0,1,3.81,152.68Z"/><path class="cls-2" d="M297.74,148.87l-3.8,3.81a75,75,0,0,1-106,0l-42.84-42.85a75,75,0,0,1,0-106L148.87,0Z"/><circle class="cls-2" cx="149.11" cy="206.42" r="45.85"/><ellipse class="cls-2" cx="859.72" cy="227.63" rx="24.97" ry="24.6"/><path class="cls-2" d="M409,0h28.86l46,108.77H451.73l-7.87-19.29H402.21l-7.72,19.29H363Zm26.23,66.18-12-30.7L411,66.22Z"/><path class="cls-2" d="M494.31.81h31.63l25.77,41.81L577.47.81H609.1v108H579.32v-62L551.71,89.06h-.62l-27.46-42v61.72H494.31Z"/><path class="cls-2" d="M628.85.81h30.08v108H628.85Z"/><path class="cls-2" d="M678.68.81h27.93L751,57.89V.81h29.62v108H754.43L708.3,49.56v59.25H678.68Z"/><path class="cls-2" d="M799.79.81h86.86V26.27H829.41V42.62h51.84v23.6H829.41V83.35h58v25.46H799.79Z"/><path class="cls-2" d="M409.16,144H438l46,108.77H451.9L444,233.52H402.37l-7.71,19.29H363.19Zm26.23,66.18-12-30.7-12.19,30.7Z"/><path class="cls-2" d="M491.09,231.05l54.15-60.94h-52.3v-25.3h93.65v21.75L532.43,227.5h54.16v25.31h-95.5Z"/><path class="cls-2" d="M602.79,144.81h30.08v108H602.79Z"/><path class="cls-2" d="M649.23,231.05l54.15-60.94h-52.3v-25.3h93.65v21.75L690.57,227.5h54.16v25.31h-95.5Z"/><path class="cls-2" d="M760.93,144.81H791v108H760.93Z"/></g></g></svg>