<svg xmlns="http://www.w3.org/2000/svg" xmlns:xlink="http://www.w3.org/1999/xlink" viewBox="0 0 297.74 514.32"><defs><style>.cls-1{fill:url(#linear-gradient);}.cls-2{fill:url(#linear-gradient-2);}.cls-3{fill:url(#linear-gradient-3);}.cls-4{fill:none;stroke-miterlimit:10;stroke-width:2px;stroke:url(#linear-gradient-4);}.cls-5{font-size:40px;fill:#fff;font-family:Gotham-Black, Gotham Black;font-weight:800;}</style><linearGradient id="linear-gradient" x1="-834.09" y1="-814.35" x2="-834.09" y2="-603.81" gradientTransform="translate(106.5 -679.71) rotate(-135)" gradientUnits="userSpaceOnUse"><stop offset="0" stop-color="#172b4d"/><stop offset="1" stop-color="#57d9a3"/></linearGradient><linearGradient id="linear-gradient-2" x1="-874.27" y1="-774.17" x2="-663.73" y2="-774.17" gradientTransform="translate(106.5 -679.71) rotate(-135)" gradientUnits="userSpaceOnUse"><stop offset="0" stop-color="#57d9a3"/><stop offset="1" stop-color="#0082cc"/></linearGradient><linearGradient id="linear-gradient-3" x1="-774.06" y1="-668.33" x2="-682.06" y2="-668.33" gradientTransform="translate(106.5 -679.71) rotate(-135)" gradientUnits="userSpaceOnUse"><stop offset="0" stop-color="#57d9a3"/><stop offset="1" stop-color="#0052cc"/></linearGradient><linearGradient id="linear-gradient-4" x1="82.87" y1="197" x2="214.87" y2="65" gradientUnits="userSpaceOnUse"><stop offset="0" stop-color="#0052cc"/><stop offset="0.5" stop-color="#57d9a3"/><stop offset="1" stop-color="#fff"/></linearGradient></defs><title>-2Asset 2</title><g id="Layer_2" data-name="Layer 2"><g id="Layer_1-2" data-name="Layer 1"><path class="cls-1" d="M293.94,361.64l3.8,3.8L148.87,514.32l-3.8-3.81a75,75,0,0,1,0-106l42.84-42.84A75,75,0,0,1,293.94,361.64Z"/><path class="cls-2" d="M0,365.44l3.81-3.8a75,75,0,0,1,106,0l42.85,42.84a75,75,0,0,1,0,106l-3.81,3.81Z"/><circle class="cls-3" cx="148.74" cy="307.68" r="46"/><line class="cls-4" x1="148.87" y1="262" x2="148.87"/><text class="cls-5" transform="translate(136.39 320.87)">2</text></g></g></svg>