<svg xmlns="http://www.w3.org/2000/svg" viewBox="0 0 827.97 163.66"><defs><style>.cls-1{fill:#1d50ff;}</style></defs><title>Asset 10</title><g id="Layer_2" data-name="Layer 2"><g id="Layer_1-2" data-name="Layer 1"><polygon class="cls-1" points="163.94 0 163.94 143.06 109.3 143.06 109.3 54.65 20.89 54.65 20.89 0 163.94 0"/><rect y="75.25" width="88.41" height="88.41"/><path d="M271,134.07q-13.29,0-22.58-4.83a50.25,50.25,0,0,1-15.93-13l11.78-11a39.55,39.55,0,0,0,12.3,10.27A33,33,0,0,0,271.87,119q10.11,0,15.25-4.53t5.14-12.23q0-6.19-3.63-9.82T275.8,87l-9.37-1.66Q251,82.44,243.33,75.18t-7.7-19.93a29.5,29.5,0,0,1,2.64-12.61,26.34,26.34,0,0,1,7.4-9.51,34.31,34.31,0,0,1,11.55-6,51.25,51.25,0,0,1,15.25-2.11q11.94,0,20.69,4.15a41.47,41.47,0,0,1,14.95,12L296.18,51.78a31,31,0,0,0-10-8.46q-5.89-3.16-14.65-3.17-9.06,0-14,3.62t-5,10.57q0,6.64,4.08,9.89t12.68,4.91l9.37,2q15.85,3,23.18,10.27t7.32,19.93a34,34,0,0,1-2.57,13.44,28.3,28.3,0,0,1-7.47,10.35,34.44,34.44,0,0,1-12,6.64A51.46,51.46,0,0,1,271,134.07Z"/><path d="M328.5,20.52H345V89.07h.76l10.87-14,18.88-21.29h19.17L367.15,84.09,398,132.26H378.33l-22.5-37.45L345,106.59v25.67H328.5Z"/><path d="M468.17,132.26q-6.5,0-10-3.7a16.48,16.48,0,0,1-4.23-9.44h-.76a19.33,19.33,0,0,1-8.3,11.18,27.17,27.17,0,0,1-14.65,3.77q-12.22,0-18.8-6.34t-6.57-17.06q0-11.79,8.53-17.67t25-5.89h14.2V80.47q0-7.26-3.93-11.18t-12.23-3.92q-6.94,0-11.32,3a26.94,26.94,0,0,0-7.4,7.7l-9.82-8.91a31.44,31.44,0,0,1,11-11q7.1-4.3,18.57-4.3,15.24,0,23.4,7.09t8.16,20.39v39.41h8.3v13.44ZM435,121.54c5.14,0,9.36-1.13,12.69-3.4a10.55,10.55,0,0,0,5-9.14V97.68H438.73q-17.07,0-17.07,10.57V111c0,3.52,1.19,6.16,3.55,7.93S430.82,121.54,435,121.54Z"/><path d="M551.07,132.26q-6.5,0-10-3.7a16.54,16.54,0,0,1-4.22-9.44h-.76a19.33,19.33,0,0,1-8.3,11.18,27.17,27.17,0,0,1-14.65,3.77q-12.24,0-18.8-6.34t-6.57-17.06q0-11.79,8.53-17.67t25-5.89h14.2V80.47q0-7.26-3.93-11.18t-12.23-3.92q-6.95,0-11.32,3a26.8,26.8,0,0,0-7.4,7.7l-9.82-8.91a31.49,31.49,0,0,1,11-11q7.1-4.3,18.58-4.3,15.24,0,23.4,7.09T552,79.41v39.41h8.3v13.44Zm-33.22-10.72q7.7,0,12.68-3.4a10.53,10.53,0,0,0,5-9.14V97.68H521.63q-17.07,0-17.07,10.57V111q0,5.28,3.55,7.93T517.85,121.54Z"/><path d="M593.2,132.26q-8.46,0-12.61-4.31c-2.77-2.86-4.15-6.87-4.15-12V20.52H592.9v98.3h10.87v13.44Z"/><path d="M677,132.26q-6.5,0-10-3.7a16.48,16.48,0,0,1-4.23-9.44h-.76a19.33,19.33,0,0,1-8.3,11.18,27.17,27.17,0,0,1-14.65,3.77q-12.23,0-18.8-6.34t-6.57-17.06q0-11.79,8.53-17.67t25-5.89h14.2V80.47q0-7.26-3.93-11.18t-12.23-3.92q-6.94,0-11.32,3a26.94,26.94,0,0,0-7.4,7.7l-9.82-8.91a31.44,31.44,0,0,1,11-11q7.1-4.3,18.57-4.3,15.24,0,23.4,7.09t8.16,20.39v39.41h8.3v13.44Zm-33.22-10.72c5.14,0,9.36-1.13,12.69-3.4a10.55,10.55,0,0,0,5-9.14V97.68H647.56q-17.07,0-17.07,10.57V111c0,3.52,1.19,6.16,3.55,7.93S639.65,121.54,643.78,121.54Z"/><path d="M702.37,20.52h16.46v46.2h.75A21.42,21.42,0,0,1,728,55.78a24.16,24.16,0,0,1,13.67-3.85q15,0,23.1,10.79T772.89,93q0,19.47-8.16,30.27t-23.1,10.8A23.83,23.83,0,0,1,728,130.14a21.88,21.88,0,0,1-8.38-10.87h-.75v13H702.37Zm34.28,99.36q8.6,0,13.74-5.52t5.13-14.57V86.2q0-9.06-5.13-14.57t-13.74-5.51A21.1,21.1,0,0,0,724,69.82a11.47,11.47,0,0,0-5.13,9.74v26.88a11.48,11.48,0,0,0,5.13,9.74A21.1,21.1,0,0,0,736.65,119.88Z"/><rect class="cls-1" x="801.97" y="106.66" width="26" height="26"/></g></g></svg>